<svg xmlns="http://www.w3.org/2000/svg" xmlns:xlink="http://www.w3.org/1999/xlink" width="500" zoomAndPan="magnify" viewBox="0 0 375 374.999991" height="500" preserveAspectRatio="xMidYMid meet" version="1.0"><defs><clipPath id="e38614a8ae"><path d="M 0 17.109375 L 375 17.109375 L 375 357.609375 L 0 357.609375 Z M 0 17.109375 " clip-rule="nonzero"/></clipPath></defs><g clip-path="url(#e38614a8ae)"><path fill="#ff5757" d="M 80.871094 17.144531 L 51.222656 17.277344 C 41.816406 17.308594 34.230469 24.976562 34.28125 34.382812 C 34.316406 43.804688 41.980469 51.386719 51.386719 51.355469 L 69.625 51.289062 L 79.410156 74.78125 C 82.066406 81.121094 88.28125 85.265625 95.148438 85.265625 L 191.660156 85.300781 L 107.761719 218.617188 C 100.945312 229.519531 100.59375 243.296875 106.832031 254.523438 C 113.066406 265.753906 124.898438 272.730469 137.746094 272.730469 L 323.777344 272.730469 C 333.183594 272.730469 340.816406 265.09375 340.816406 255.691406 C 340.816406 246.285156 333.183594 238.652344 323.777344 238.652344 L 137.746094 238.652344 L 136.648438 236.652344 L 156.714844 204.574219 L 281.546875 204.574219 C 293.933594 204.574219 305.316406 197.855469 311.332031 187.035156 L 372.734375 76.511719 C 375.679688 71.230469 375.601562 64.820312 372.535156 59.605469 C 369.464844 54.410156 363.855469 51.222656 357.824219 51.222656 L 106.53125 51.222656 L 96.714844 27.625 C 94.054688 21.253906 87.789062 17.109375 80.871094 17.144531 Z M 0.0703125 119.34375 L 0.0703125 153.421875 L 108.429688 153.421875 L 109.128906 152.390625 L 129.894531 119.34375 Z M 0.0703125 187.5 L 0.0703125 221.578125 L 65.496094 221.578125 L 87.128906 187.5 Z M 136.347656 289.769531 C 135.234375 289.769531 134.121094 289.824219 133.007812 289.933594 C 131.898438 290.042969 130.796875 290.203125 129.703125 290.421875 C 128.605469 290.640625 127.523438 290.910156 126.457031 291.234375 C 125.390625 291.558594 124.339844 291.933594 123.308594 292.363281 C 122.277344 292.789062 121.269531 293.265625 120.285156 293.792969 C 119.300781 294.316406 118.34375 294.890625 117.417969 295.511719 C 116.488281 296.132812 115.59375 296.796875 114.730469 297.503906 C 113.867188 298.210938 113.042969 298.960938 112.253906 299.75 C 111.464844 300.539062 110.714844 301.363281 110.007812 302.226562 C 109.296875 303.089844 108.632812 303.984375 108.015625 304.914062 C 107.394531 305.839844 106.820312 306.796875 106.296875 307.78125 C 105.769531 308.765625 105.292969 309.773438 104.867188 310.804688 C 104.4375 311.835938 104.0625 312.886719 103.738281 313.953125 C 103.414062 315.019531 103.144531 316.101562 102.925781 317.199219 C 102.707031 318.292969 102.542969 319.394531 102.433594 320.503906 C 102.324219 321.617188 102.269531 322.730469 102.269531 323.847656 C 102.269531 324.960938 102.324219 326.074219 102.433594 327.1875 C 102.542969 328.296875 102.707031 329.398438 102.925781 330.492188 C 103.144531 331.589844 103.414062 332.671875 103.738281 333.738281 C 104.0625 334.804688 104.4375 335.855469 104.867188 336.886719 C 105.292969 337.917969 105.769531 338.925781 106.296875 339.910156 C 106.820312 340.894531 107.394531 341.851562 108.015625 342.777344 C 108.632812 343.707031 109.296875 344.601562 110.007812 345.464844 C 110.714844 346.328125 111.464844 347.152344 112.253906 347.941406 C 113.042969 348.730469 113.867188 349.480469 114.730469 350.1875 C 115.59375 350.898438 116.488281 351.5625 117.417969 352.179688 C 118.34375 352.800781 119.300781 353.375 120.285156 353.898438 C 121.269531 354.425781 122.277344 354.902344 123.308594 355.328125 C 124.339844 355.757812 125.390625 356.132812 126.457031 356.457031 C 127.523438 356.78125 128.605469 357.050781 129.703125 357.269531 C 130.796875 357.488281 131.898438 357.652344 133.007812 357.761719 C 134.121094 357.871094 135.234375 357.925781 136.347656 357.925781 C 137.464844 357.925781 138.578125 357.871094 139.691406 357.761719 C 140.800781 357.652344 141.902344 357.488281 142.996094 357.269531 C 144.09375 357.050781 145.175781 356.78125 146.242188 356.457031 C 147.308594 356.132812 148.359375 355.757812 149.390625 355.328125 C 150.421875 354.902344 151.429688 354.425781 152.414062 353.898438 C 153.398438 353.375 154.355469 352.800781 155.28125 352.179688 C 156.210938 351.5625 157.105469 350.898438 157.96875 350.1875 C 158.832031 349.480469 159.65625 348.730469 160.445312 347.941406 C 161.234375 347.152344 161.984375 346.328125 162.691406 345.464844 C 163.398438 344.601562 164.0625 343.707031 164.683594 342.777344 C 165.304688 341.851562 165.878906 340.894531 166.402344 339.910156 C 166.929688 338.925781 167.40625 337.917969 167.832031 336.886719 C 168.261719 335.855469 168.636719 334.804688 168.960938 333.738281 C 169.285156 332.671875 169.554688 331.589844 169.773438 330.492188 C 169.992188 329.398438 170.152344 328.296875 170.261719 327.1875 C 170.371094 326.074219 170.425781 324.960938 170.425781 323.847656 C 170.425781 322.730469 170.371094 321.617188 170.261719 320.503906 C 170.152344 319.394531 169.992188 318.292969 169.773438 317.199219 C 169.554688 316.101562 169.285156 315.019531 168.960938 313.953125 C 168.636719 312.886719 168.261719 311.835938 167.832031 310.804688 C 167.40625 309.773438 166.929688 308.765625 166.402344 307.78125 C 165.878906 306.796875 165.304688 305.839844 164.683594 304.914062 C 164.0625 303.984375 163.398438 303.089844 162.691406 302.226562 C 161.984375 301.363281 161.234375 300.539062 160.445312 299.75 C 159.65625 298.960938 158.832031 298.210938 157.96875 297.503906 C 157.105469 296.796875 156.210938 296.132812 155.28125 295.511719 C 154.355469 294.890625 153.398438 294.316406 152.414062 293.792969 C 151.429688 293.265625 150.421875 292.789062 149.390625 292.363281 C 148.359375 291.933594 147.308594 291.558594 146.242188 291.234375 C 145.175781 290.910156 144.09375 290.640625 142.996094 290.421875 C 141.902344 290.203125 140.800781 290.042969 139.691406 289.933594 C 138.578125 289.824219 137.464844 289.769531 136.347656 289.769531 Z M 306.738281 289.769531 C 305.625 289.769531 304.511719 289.824219 303.398438 289.933594 C 302.289062 290.042969 301.1875 290.203125 300.089844 290.421875 C 298.996094 290.640625 297.914062 290.910156 296.847656 291.234375 C 295.78125 291.558594 294.730469 291.933594 293.699219 292.363281 C 292.667969 292.789062 291.660156 293.265625 290.675781 293.792969 C 289.691406 294.316406 288.734375 294.890625 287.808594 295.511719 C 286.878906 296.132812 285.984375 296.796875 285.121094 297.503906 C 284.257812 298.210938 283.433594 298.960938 282.644531 299.75 C 281.855469 300.539062 281.105469 301.363281 280.398438 302.226562 C 279.6875 303.089844 279.023438 303.984375 278.40625 304.914062 C 277.785156 305.839844 277.210938 306.796875 276.6875 307.78125 C 276.160156 308.765625 275.683594 309.773438 275.257812 310.804688 C 274.828125 311.835938 274.453125 312.886719 274.128906 313.953125 C 273.804688 315.019531 273.535156 316.101562 273.316406 317.199219 C 273.097656 318.292969 272.933594 319.394531 272.824219 320.503906 C 272.714844 321.617188 272.660156 322.730469 272.660156 323.847656 C 272.660156 324.960938 272.714844 326.074219 272.824219 327.1875 C 272.933594 328.296875 273.097656 329.398438 273.316406 330.492188 C 273.535156 331.589844 273.804688 332.671875 274.128906 333.738281 C 274.453125 334.804688 274.828125 335.855469 275.257812 336.886719 C 275.683594 337.917969 276.160156 338.925781 276.6875 339.910156 C 277.210938 340.894531 277.785156 341.851562 278.40625 342.777344 C 279.023438 343.707031 279.6875 344.601562 280.398438 345.464844 C 281.105469 346.328125 281.855469 347.152344 282.644531 347.941406 C 283.433594 348.730469 284.257812 349.480469 285.121094 350.1875 C 285.984375 350.898438 286.878906 351.5625 287.808594 352.179688 C 288.734375 352.800781 289.691406 353.375 290.675781 353.898438 C 291.660156 354.425781 292.667969 354.902344 293.699219 355.328125 C 294.730469 355.757812 295.78125 356.132812 296.847656 356.457031 C 297.914062 356.78125 298.996094 357.050781 300.089844 357.269531 C 301.1875 357.488281 302.289062 357.652344 303.398438 357.761719 C 304.511719 357.871094 305.625 357.925781 306.738281 357.925781 C 307.855469 357.925781 308.96875 357.871094 310.082031 357.761719 C 311.191406 357.652344 312.292969 357.488281 313.386719 357.269531 C 314.484375 357.050781 315.5625 356.78125 316.632812 356.457031 C 317.699219 356.132812 318.75 355.757812 319.78125 355.328125 C 320.8125 354.902344 321.820312 354.425781 322.804688 353.898438 C 323.789062 353.375 324.746094 352.800781 325.671875 352.179688 C 326.601562 351.5625 327.496094 350.898438 328.359375 350.1875 C 329.222656 349.480469 330.046875 348.730469 330.835938 347.941406 C 331.625 347.152344 332.375 346.328125 333.082031 345.464844 C 333.789062 344.601562 334.453125 343.707031 335.074219 342.777344 C 335.695312 341.851562 336.269531 340.894531 336.792969 339.910156 C 337.320312 338.925781 337.796875 337.917969 338.222656 336.886719 C 338.652344 335.855469 339.027344 334.804688 339.351562 333.738281 C 339.675781 332.671875 339.945312 331.589844 340.164062 330.492188 C 340.382812 329.398438 340.542969 328.296875 340.652344 327.1875 C 340.761719 326.074219 340.816406 324.960938 340.816406 323.847656 C 340.816406 322.730469 340.761719 321.617188 340.652344 320.503906 C 340.542969 319.394531 340.382812 318.292969 340.164062 317.199219 C 339.945312 316.101562 339.675781 315.019531 339.351562 313.953125 C 339.027344 312.886719 338.652344 311.835938 338.222656 310.804688 C 337.796875 309.773438 337.320312 308.765625 336.792969 307.78125 C 336.269531 306.796875 335.695312 305.839844 335.074219 304.914062 C 334.453125 303.984375 333.789062 303.089844 333.082031 302.226562 C 332.375 301.363281 331.625 300.539062 330.835938 299.75 C 330.046875 298.960938 329.222656 298.210938 328.359375 297.503906 C 327.496094 296.796875 326.601562 296.132812 325.671875 295.511719 C 324.746094 294.890625 323.789062 294.316406 322.804688 293.792969 C 321.820312 293.265625 320.8125 292.789062 319.78125 292.363281 C 318.75 291.933594 317.699219 291.558594 316.632812 291.234375 C 315.5625 290.910156 314.484375 290.640625 313.386719 290.421875 C 312.292969 290.203125 311.191406 290.042969 310.082031 289.933594 C 308.96875 289.824219 307.855469 289.769531 306.738281 289.769531 Z M 306.738281 289.769531 " fill-opacity="1" fill-rule="nonzero"/></g></svg>